<mxfile host="Electron" agent="Mozilla/5.0 (Windows NT 10.0; Win64; x64) AppleWebKit/537.36 (KHTML, like Gecko) draw.io/26.0.4 Chrome/128.0.6613.186 Electron/32.2.5 Safari/537.36" version="26.0.4">
  <diagram name="Diagrama " id="j1miOdL9aXdyiB9_bzsw">
    <mxGraphModel dx="6417" dy="3200" grid="0" gridSize="10" guides="1" tooltips="1" connect="1" arrows="1" fold="1" page="0" pageScale="1" pageWidth="1169" pageHeight="827" background="none" math="0" shadow="0">
      <root>
        <mxCell id="0" />
        <mxCell id="1" parent="0" />
        <mxCell id="sMGM3d39AcloHa8HKO3q-1" value="" style="rounded=1;whiteSpace=wrap;html=1;glass=1;movable=1;resizable=1;rotatable=1;deletable=1;editable=1;locked=0;connectable=1;" vertex="1" parent="1">
          <mxGeometry x="-2162" y="-590" width="1080" height="670" as="geometry" />
        </mxCell>
        <mxCell id="sMGM3d39AcloHa8HKO3q-2" value="" style="image;html=1;image=img/lib/clip_art/networking/Firewall-page1_128x128.png" vertex="1" parent="1">
          <mxGeometry x="-360" y="290" width="80" height="80" as="geometry" />
        </mxCell>
        <mxCell id="sMGM3d39AcloHa8HKO3q-3" value="" style="image;html=1;image=img/lib/clip_art/computers/Server_Rack_128x128.png" vertex="1" parent="1">
          <mxGeometry x="910" y="520" width="100" height="100" as="geometry" />
        </mxCell>
        <mxCell id="sMGM3d39AcloHa8HKO3q-4" value="" style="endArrow=none;html=1;rounded=0;exitX=1;exitY=0.5;exitDx=0;exitDy=0;strokeWidth=5;fillColor=#f8cecc;strokeColor=#FF0000;" edge="1" parent="1" source="sMGM3d39AcloHa8HKO3q-5" target="sMGM3d39AcloHa8HKO3q-2">
          <mxGeometry width="50" height="50" relative="1" as="geometry">
            <mxPoint x="150" y="330" as="sourcePoint" />
            <mxPoint x="110" y="290" as="targetPoint" />
          </mxGeometry>
        </mxCell>
        <mxCell id="sMGM3d39AcloHa8HKO3q-5" value="" style="image;html=1;image=img/lib/clip_art/networking/Cloud_128x128.png" vertex="1" parent="1">
          <mxGeometry x="-1060" y="235" width="280" height="190" as="geometry" />
        </mxCell>
        <mxCell id="sMGM3d39AcloHa8HKO3q-6" value="" style="endArrow=none;html=1;rounded=0;strokeWidth=5;strokeColor=#00CC00;edgeStyle=orthogonalEdgeStyle;exitX=0.5;exitY=1;exitDx=0;exitDy=0;" edge="1" parent="1" source="sMGM3d39AcloHa8HKO3q-63" target="sMGM3d39AcloHa8HKO3q-8">
          <mxGeometry width="50" height="50" relative="1" as="geometry">
            <mxPoint x="-270" y="360" as="sourcePoint" />
            <mxPoint x="480" y="371" as="targetPoint" />
            <Array as="points">
              <mxPoint x="256" y="570" />
            </Array>
          </mxGeometry>
        </mxCell>
        <mxCell id="sMGM3d39AcloHa8HKO3q-7" value="" style="endArrow=none;html=1;rounded=0;exitX=1;exitY=0.75;exitDx=0;exitDy=0;strokeWidth=5;strokeColor=#82b366;edgeStyle=orthogonalEdgeStyle;entryX=0;entryY=0.5;entryDx=0;entryDy=0;fillColor=#d5e8d4;" edge="1" parent="1" target="sMGM3d39AcloHa8HKO3q-63">
          <mxGeometry width="50" height="50" relative="1" as="geometry">
            <mxPoint x="-270" y="330" as="sourcePoint" />
            <mxPoint x="260" y="170" as="targetPoint" />
            <Array as="points">
              <mxPoint x="50" y="330" />
              <mxPoint x="50" y="130" />
            </Array>
          </mxGeometry>
        </mxCell>
        <mxCell id="sMGM3d39AcloHa8HKO3q-8" value="" style="image;html=1;image=img/lib/clip_art/networking/Switch_128x128.png" vertex="1" parent="1">
          <mxGeometry x="670" y="530" width="80" height="80" as="geometry" />
        </mxCell>
        <mxCell id="sMGM3d39AcloHa8HKO3q-9" value="" style="endArrow=none;html=1;rounded=0;strokeWidth=5;edgeStyle=orthogonalEdgeStyle;strokeColor=#d79b00;entryX=0;entryY=0.5;entryDx=0;entryDy=0;fillColor=#ffe6cc;" edge="1" parent="1" source="sMGM3d39AcloHa8HKO3q-63" target="sMGM3d39AcloHa8HKO3q-49">
          <mxGeometry width="50" height="50" relative="1" as="geometry">
            <mxPoint x="290.3199999999997" y="120.32000000000016" as="sourcePoint" />
            <mxPoint x="650" y="120" as="targetPoint" />
            <Array as="points" />
          </mxGeometry>
        </mxCell>
        <mxCell id="sMGM3d39AcloHa8HKO3q-10" value="" style="endArrow=none;html=1;rounded=0;strokeWidth=5;entryX=0;entryY=0.5;entryDx=0;entryDy=0;edgeStyle=orthogonalEdgeStyle;strokeColor=#FFFF00;exitX=0.549;exitY=-0.038;exitDx=0;exitDy=0;exitPerimeter=0;" edge="1" parent="1" source="sMGM3d39AcloHa8HKO3q-63" target="sMGM3d39AcloHa8HKO3q-35">
          <mxGeometry width="50" height="50" relative="1" as="geometry">
            <mxPoint x="260" y="80" as="sourcePoint" />
            <mxPoint x="202" y="20" as="targetPoint" />
            <Array as="points">
              <mxPoint x="259" y="-360" />
            </Array>
          </mxGeometry>
        </mxCell>
        <mxCell id="sMGM3d39AcloHa8HKO3q-11" value="" style="endArrow=none;html=1;rounded=0;strokeWidth=5;exitX=1;exitY=0.5;exitDx=0;exitDy=0;entryX=0;entryY=0.5;entryDx=0;entryDy=0;strokeColor=#00CC00;" edge="1" parent="1" source="sMGM3d39AcloHa8HKO3q-8" target="sMGM3d39AcloHa8HKO3q-3">
          <mxGeometry width="50" height="50" relative="1" as="geometry">
            <mxPoint x="1010" y="410" as="sourcePoint" />
            <mxPoint x="890" y="570" as="targetPoint" />
          </mxGeometry>
        </mxCell>
        <mxCell id="sMGM3d39AcloHa8HKO3q-12" value="" style="image;html=1;image=img/lib/clip_art/computers/Server_Rack_128x128.png" vertex="1" parent="1">
          <mxGeometry x="910" y="655" width="100" height="100" as="geometry" />
        </mxCell>
        <mxCell id="sMGM3d39AcloHa8HKO3q-13" value="" style="image;html=1;image=img/lib/clip_art/computers/Server_Rack_128x128.png" vertex="1" parent="1">
          <mxGeometry x="910" y="790" width="100" height="100" as="geometry" />
        </mxCell>
        <mxCell id="sMGM3d39AcloHa8HKO3q-14" value="" style="endArrow=none;html=1;rounded=0;strokeWidth=5;exitX=1;exitY=0.75;exitDx=0;exitDy=0;entryX=-0.04;entryY=0.57;entryDx=0;entryDy=0;entryPerimeter=0;edgeStyle=orthogonalEdgeStyle;strokeColor=#00CC00;" edge="1" parent="1" source="sMGM3d39AcloHa8HKO3q-8" target="sMGM3d39AcloHa8HKO3q-12">
          <mxGeometry width="50" height="50" relative="1" as="geometry">
            <mxPoint x="760" y="580" as="sourcePoint" />
            <mxPoint x="920" y="580" as="targetPoint" />
            <Array as="points">
              <mxPoint x="790" y="590" />
              <mxPoint x="790" y="712" />
            </Array>
          </mxGeometry>
        </mxCell>
        <mxCell id="sMGM3d39AcloHa8HKO3q-15" value="" style="endArrow=none;html=1;rounded=0;strokeWidth=5;exitX=0.75;exitY=1;exitDx=0;exitDy=0;entryX=0;entryY=0.5;entryDx=0;entryDy=0;edgeStyle=orthogonalEdgeStyle;strokeColor=#00CC00;" edge="1" parent="1" source="sMGM3d39AcloHa8HKO3q-8" target="sMGM3d39AcloHa8HKO3q-13">
          <mxGeometry width="50" height="50" relative="1" as="geometry">
            <mxPoint x="740" y="620" as="sourcePoint" />
            <mxPoint x="896" y="742" as="targetPoint" />
          </mxGeometry>
        </mxCell>
        <mxCell id="sMGM3d39AcloHa8HKO3q-16" value="Servidor Interno 1" style="text;html=1;strokeColor=none;fillColor=none;align=center;verticalAlign=middle;whiteSpace=wrap;rounded=0;fontSize=24;" vertex="1" parent="1">
          <mxGeometry x="1050" y="550" width="80" height="30" as="geometry" />
        </mxCell>
        <mxCell id="sMGM3d39AcloHa8HKO3q-17" value="Servidor Interno 2" style="text;html=1;strokeColor=none;fillColor=none;align=center;verticalAlign=middle;whiteSpace=wrap;rounded=0;fontSize=24;" vertex="1" parent="1">
          <mxGeometry x="1050" y="690" width="80" height="30" as="geometry" />
        </mxCell>
        <mxCell id="sMGM3d39AcloHa8HKO3q-18" value="Servidor Interno 3" style="text;html=1;strokeColor=none;fillColor=none;align=center;verticalAlign=middle;whiteSpace=wrap;rounded=0;fontSize=24;" vertex="1" parent="1">
          <mxGeometry x="1050" y="825" width="80" height="30" as="geometry" />
        </mxCell>
        <mxCell id="sMGM3d39AcloHa8HKO3q-19" value="em1 - &lt;font color=&quot;#009900&quot;&gt;LAN&lt;/font&gt; - 10.1.0.0/24 10.1.0.1" style="text;html=1;strokeColor=none;fillColor=none;align=center;verticalAlign=middle;whiteSpace=wrap;rounded=0;fontSize=24;fontStyle=1" vertex="1" parent="1">
          <mxGeometry x="-271" y="315" width="248" height="30" as="geometry" />
        </mxCell>
        <mxCell id="sMGM3d39AcloHa8HKO3q-20" value="10.1.3.0/24" style="text;html=1;strokeColor=none;fillColor=none;align=center;verticalAlign=middle;whiteSpace=wrap;rounded=0;fontSize=24;fontStyle=1" vertex="1" parent="1">
          <mxGeometry x="430" y="530" width="80" height="30" as="geometry" />
        </mxCell>
        <mxCell id="sMGM3d39AcloHa8HKO3q-21" value="10.1.3.2" style="text;html=1;strokeColor=none;fillColor=none;align=center;verticalAlign=middle;whiteSpace=wrap;rounded=0;fontSize=24;fontStyle=1" vertex="1" parent="1">
          <mxGeometry x="1207" y="540" width="80" height="30" as="geometry" />
        </mxCell>
        <mxCell id="sMGM3d39AcloHa8HKO3q-22" value="10.1.3.3" style="text;html=1;strokeColor=none;fillColor=none;align=center;verticalAlign=middle;whiteSpace=wrap;rounded=0;fontSize=24;fontStyle=1" vertex="1" parent="1">
          <mxGeometry x="1207" y="690" width="80" height="30" as="geometry" />
        </mxCell>
        <mxCell id="sMGM3d39AcloHa8HKO3q-23" value="10.1.3.4" style="text;html=1;strokeColor=none;fillColor=none;align=center;verticalAlign=middle;whiteSpace=wrap;rounded=0;fontSize=24;fontStyle=1" vertex="1" parent="1">
          <mxGeometry x="1207" y="825" width="80" height="30" as="geometry" />
        </mxCell>
        <mxCell id="sMGM3d39AcloHa8HKO3q-24" value="Firewall Principal" style="text;html=1;strokeColor=none;fillColor=none;align=center;verticalAlign=middle;whiteSpace=wrap;rounded=0;fontSize=24;" vertex="1" parent="1">
          <mxGeometry x="-360" y="235" width="80" height="30" as="geometry" />
        </mxCell>
        <mxCell id="sMGM3d39AcloHa8HKO3q-25" value="" style="endArrow=none;html=1;rounded=0;strokeWidth=5;strokeColor=#b85450;edgeStyle=orthogonalEdgeStyle;entryX=0.4;entryY=1.07;entryDx=0;entryDy=0;entryPerimeter=0;fillColor=#f8cecc;" edge="1" parent="1" target="sMGM3d39AcloHa8HKO3q-32">
          <mxGeometry width="50" height="50" relative="1" as="geometry">
            <mxPoint x="-270" y="280" as="sourcePoint" />
            <mxPoint x="20" y="-20" as="targetPoint" />
            <Array as="points">
              <mxPoint x="-20" y="280" />
              <mxPoint x="-20" y="-114" />
            </Array>
          </mxGeometry>
        </mxCell>
        <mxCell id="sMGM3d39AcloHa8HKO3q-26" value="" style="image;html=1;image=img/lib/clip_art/computers/Server_Rack_128x128.png" vertex="1" parent="1">
          <mxGeometry x="-125" y="-450" width="100" height="100" as="geometry" />
        </mxCell>
        <mxCell id="sMGM3d39AcloHa8HKO3q-27" value="Servidor Web Externo" style="text;html=1;strokeColor=none;fillColor=none;align=center;verticalAlign=middle;whiteSpace=wrap;rounded=0;fontSize=24;" vertex="1" parent="1">
          <mxGeometry x="-135.5" y="-580" width="121" height="110" as="geometry" />
        </mxCell>
        <mxCell id="sMGM3d39AcloHa8HKO3q-28" value="10.2.0.2" style="text;html=1;strokeColor=none;fillColor=none;align=center;verticalAlign=middle;whiteSpace=wrap;rounded=0;fontSize=24;fontStyle=1" vertex="1" parent="1">
          <mxGeometry x="-235.5" y="-430" width="80" height="30" as="geometry" />
        </mxCell>
        <mxCell id="sMGM3d39AcloHa8HKO3q-29" value="" style="image;html=1;image=img/lib/clip_art/computers/Server_Rack_128x128.png" vertex="1" parent="1">
          <mxGeometry x="25" y="-450" width="100" height="100" as="geometry" />
        </mxCell>
        <mxCell id="sMGM3d39AcloHa8HKO3q-30" value="Servidor SFTP Externo" style="text;html=1;strokeColor=none;fillColor=none;align=center;verticalAlign=middle;whiteSpace=wrap;rounded=0;fontSize=24;" vertex="1" parent="1">
          <mxGeometry x="14.5" y="-580" width="121" height="110" as="geometry" />
        </mxCell>
        <mxCell id="sMGM3d39AcloHa8HKO3q-31" value="10.2.0.3" style="text;html=1;strokeColor=none;fillColor=none;align=center;verticalAlign=middle;whiteSpace=wrap;rounded=0;fontSize=24;fontStyle=1" vertex="1" parent="1">
          <mxGeometry x="135.5" y="-430" width="80" height="30" as="geometry" />
        </mxCell>
        <mxCell id="sMGM3d39AcloHa8HKO3q-32" value="" style="image;html=1;image=img/lib/clip_art/networking/Switch_128x128.png" vertex="1" parent="1">
          <mxGeometry x="-50" y="-200" width="80" height="80" as="geometry" />
        </mxCell>
        <mxCell id="sMGM3d39AcloHa8HKO3q-33" value="" style="endArrow=none;html=1;rounded=0;strokeWidth=5;strokeColor=#b85450;edgeStyle=orthogonalEdgeStyle;entryX=0.44;entryY=1;entryDx=0;entryDy=0;entryPerimeter=0;exitX=0.25;exitY=0;exitDx=0;exitDy=0;fillColor=#f8cecc;" edge="1" parent="1" source="sMGM3d39AcloHa8HKO3q-32" target="sMGM3d39AcloHa8HKO3q-26">
          <mxGeometry width="50" height="50" relative="1" as="geometry">
            <mxPoint x="-260" y="290" as="sourcePoint" />
            <mxPoint x="-8" y="-104" as="targetPoint" />
            <Array as="points">
              <mxPoint x="-30" y="-280" />
              <mxPoint x="-81" y="-280" />
            </Array>
          </mxGeometry>
        </mxCell>
        <mxCell id="sMGM3d39AcloHa8HKO3q-34" value="" style="endArrow=none;html=1;rounded=0;strokeWidth=5;strokeColor=#b85450;edgeStyle=orthogonalEdgeStyle;entryX=0.5;entryY=1;entryDx=0;entryDy=0;exitX=0.875;exitY=0.013;exitDx=0;exitDy=0;exitPerimeter=0;fillColor=#f8cecc;" edge="1" parent="1" source="sMGM3d39AcloHa8HKO3q-32" target="sMGM3d39AcloHa8HKO3q-29">
          <mxGeometry width="50" height="50" relative="1" as="geometry">
            <mxPoint x="30" y="-220" as="sourcePoint" />
            <mxPoint x="-21" y="-370" as="targetPoint" />
            <Array as="points">
              <mxPoint x="20" y="-280" />
              <mxPoint x="75" y="-280" />
            </Array>
          </mxGeometry>
        </mxCell>
        <mxCell id="sMGM3d39AcloHa8HKO3q-35" value="" style="image;html=1;image=img/lib/clip_art/networking/Switch_128x128.png" vertex="1" parent="1">
          <mxGeometry x="650" y="-400" width="80" height="80" as="geometry" />
        </mxCell>
        <mxCell id="sMGM3d39AcloHa8HKO3q-36" value="" style="endArrow=none;html=1;rounded=0;exitX=1.004;exitY=0.379;exitDx=0;exitDy=0;strokeWidth=5;entryX=-0.013;entryY=0.586;entryDx=0;entryDy=0;edgeStyle=orthogonalEdgeStyle;strokeColor=#FFFF00;exitPerimeter=0;entryPerimeter=0;" edge="1" parent="1" source="sMGM3d39AcloHa8HKO3q-35" target="sMGM3d39AcloHa8HKO3q-47">
          <mxGeometry width="50" height="50" relative="1" as="geometry">
            <mxPoint x="950" y="-150" as="sourcePoint" />
            <mxPoint x="930" y="-222.5" as="targetPoint" />
            <Array as="points">
              <mxPoint x="780" y="-370" />
              <mxPoint x="780" y="-171" />
            </Array>
          </mxGeometry>
        </mxCell>
        <mxCell id="sMGM3d39AcloHa8HKO3q-37" value="" style="image;html=1;image=img/lib/clip_art/computers/Netbook_128x128.png" vertex="1" parent="1">
          <mxGeometry x="920" y="-360" width="80" height="70" as="geometry" />
        </mxCell>
        <mxCell id="sMGM3d39AcloHa8HKO3q-38" value="" style="image;html=1;image=img/lib/clip_art/computers/Netbook_128x128.png" vertex="1" parent="1">
          <mxGeometry x="910" y="-470" width="80" height="90" as="geometry" />
        </mxCell>
        <mxCell id="sMGM3d39AcloHa8HKO3q-39" value="" style="image;html=1;image=img/lib/clip_art/computers/Netbook_128x128.png" vertex="1" parent="1">
          <mxGeometry x="910" y="-560" width="80" height="65" as="geometry" />
        </mxCell>
        <mxCell id="sMGM3d39AcloHa8HKO3q-40" value="" style="endArrow=none;html=1;rounded=0;exitX=1.013;exitY=0.217;exitDx=0;exitDy=0;strokeWidth=5;exitPerimeter=0;edgeStyle=orthogonalEdgeStyle;strokeColor=#FFFF00;" edge="1" parent="1" source="sMGM3d39AcloHa8HKO3q-35" target="sMGM3d39AcloHa8HKO3q-37">
          <mxGeometry width="50" height="50" relative="1" as="geometry">
            <mxPoint x="740" y="-370" as="sourcePoint" />
            <mxPoint x="820" y="-430" as="targetPoint" />
            <Array as="points">
              <mxPoint x="860" y="-383" />
              <mxPoint x="860" y="-335" />
            </Array>
          </mxGeometry>
        </mxCell>
        <mxCell id="sMGM3d39AcloHa8HKO3q-41" value="" style="endArrow=none;html=1;rounded=0;exitX=0.863;exitY=0.013;exitDx=0;exitDy=0;strokeWidth=5;edgeStyle=orthogonalEdgeStyle;strokeColor=#FFFF00;exitPerimeter=0;" edge="1" parent="1" source="sMGM3d39AcloHa8HKO3q-35" target="sMGM3d39AcloHa8HKO3q-38">
          <mxGeometry width="50" height="50" relative="1" as="geometry">
            <mxPoint x="713" y="-392" as="sourcePoint" />
            <mxPoint x="739" y="-480" as="targetPoint" />
          </mxGeometry>
        </mxCell>
        <mxCell id="sMGM3d39AcloHa8HKO3q-42" value="" style="endArrow=none;html=1;rounded=0;exitX=0.613;exitY=0.013;exitDx=0;exitDy=0;strokeWidth=5;entryX=0;entryY=0.5;entryDx=0;entryDy=0;edgeStyle=orthogonalEdgeStyle;strokeColor=#FFFF00;exitPerimeter=0;" edge="1" parent="1" source="sMGM3d39AcloHa8HKO3q-35" target="sMGM3d39AcloHa8HKO3q-39">
          <mxGeometry width="50" height="50" relative="1" as="geometry">
            <mxPoint x="680" y="-390" as="sourcePoint" />
            <mxPoint x="642" y="-470" as="targetPoint" />
          </mxGeometry>
        </mxCell>
        <mxCell id="sMGM3d39AcloHa8HKO3q-43" value="10.1.1.3" style="text;html=1;strokeColor=none;fillColor=none;align=center;verticalAlign=middle;whiteSpace=wrap;rounded=0;fontSize=24;fontStyle=1" vertex="1" parent="1">
          <mxGeometry x="1040" y="-542.5" width="80" height="30" as="geometry" />
        </mxCell>
        <mxCell id="sMGM3d39AcloHa8HKO3q-44" value="10.1.1.4" style="text;html=1;strokeColor=none;fillColor=none;align=center;verticalAlign=middle;whiteSpace=wrap;rounded=0;fontSize=24;fontStyle=1" vertex="1" parent="1">
          <mxGeometry x="1040" y="-450" width="80" height="30" as="geometry" />
        </mxCell>
        <mxCell id="sMGM3d39AcloHa8HKO3q-45" value="10.1.1.5" style="text;html=1;strokeColor=none;fillColor=none;align=center;verticalAlign=middle;whiteSpace=wrap;rounded=0;fontSize=24;fontStyle=1" vertex="1" parent="1">
          <mxGeometry x="1040" y="-340" width="80" height="30" as="geometry" />
        </mxCell>
        <mxCell id="sMGM3d39AcloHa8HKO3q-46" value="10.1.1.2" style="text;html=1;strokeColor=none;fillColor=none;align=center;verticalAlign=middle;whiteSpace=wrap;rounded=0;fontSize=24;fontStyle=1" vertex="1" parent="1">
          <mxGeometry x="1040" y="-195" width="80" height="30" as="geometry" />
        </mxCell>
        <mxCell id="sMGM3d39AcloHa8HKO3q-47" value="" style="image;html=1;image=img/lib/clip_art/computers/Server_Rack_128x128.png" vertex="1" parent="1">
          <mxGeometry x="910" y="-230" width="100" height="100" as="geometry" />
        </mxCell>
        <mxCell id="sMGM3d39AcloHa8HKO3q-48" value="Red&lt;br&gt;Contabilidad" style="text;html=1;strokeColor=none;fillColor=none;align=center;verticalAlign=middle;whiteSpace=wrap;rounded=0;fontSize=24;" vertex="1" parent="1">
          <mxGeometry x="560" y="-450" width="80" height="30" as="geometry" />
        </mxCell>
        <mxCell id="sMGM3d39AcloHa8HKO3q-49" value="" style="image;html=1;image=img/lib/clip_art/networking/Switch_128x128.png" vertex="1" parent="1">
          <mxGeometry x="640" y="90" width="80" height="80" as="geometry" />
        </mxCell>
        <mxCell id="sMGM3d39AcloHa8HKO3q-50" value="" style="endArrow=none;html=1;rounded=0;exitX=1.004;exitY=0.379;exitDx=0;exitDy=0;strokeWidth=5;entryX=-0.013;entryY=0.586;entryDx=0;entryDy=0;edgeStyle=orthogonalEdgeStyle;strokeColor=#d79b00;exitPerimeter=0;entryPerimeter=0;fillColor=#ffe6cc;" edge="1" parent="1" source="sMGM3d39AcloHa8HKO3q-49" target="sMGM3d39AcloHa8HKO3q-61">
          <mxGeometry width="50" height="50" relative="1" as="geometry">
            <mxPoint x="940" y="340" as="sourcePoint" />
            <mxPoint x="920" y="267.5" as="targetPoint" />
            <Array as="points">
              <mxPoint x="770" y="120" />
              <mxPoint x="770" y="319" />
            </Array>
          </mxGeometry>
        </mxCell>
        <mxCell id="sMGM3d39AcloHa8HKO3q-51" value="" style="image;html=1;image=img/lib/clip_art/computers/Netbook_128x128.png" vertex="1" parent="1">
          <mxGeometry x="910" y="130" width="80" height="70" as="geometry" />
        </mxCell>
        <mxCell id="sMGM3d39AcloHa8HKO3q-52" value="" style="image;html=1;image=img/lib/clip_art/computers/Netbook_128x128.png" vertex="1" parent="1">
          <mxGeometry x="900" y="20" width="80" height="90" as="geometry" />
        </mxCell>
        <mxCell id="sMGM3d39AcloHa8HKO3q-53" value="" style="image;html=1;image=img/lib/clip_art/computers/Netbook_128x128.png" vertex="1" parent="1">
          <mxGeometry x="900" y="-70" width="80" height="65" as="geometry" />
        </mxCell>
        <mxCell id="sMGM3d39AcloHa8HKO3q-54" value="" style="endArrow=none;html=1;rounded=0;exitX=1.013;exitY=0.217;exitDx=0;exitDy=0;strokeWidth=5;exitPerimeter=0;edgeStyle=orthogonalEdgeStyle;strokeColor=#d79b00;fillColor=#ffe6cc;" edge="1" parent="1" source="sMGM3d39AcloHa8HKO3q-49" target="sMGM3d39AcloHa8HKO3q-51">
          <mxGeometry width="50" height="50" relative="1" as="geometry">
            <mxPoint x="730" y="120" as="sourcePoint" />
            <mxPoint x="810" y="60" as="targetPoint" />
            <Array as="points">
              <mxPoint x="850" y="107" />
              <mxPoint x="850" y="155" />
            </Array>
          </mxGeometry>
        </mxCell>
        <mxCell id="sMGM3d39AcloHa8HKO3q-55" value="" style="endArrow=none;html=1;rounded=0;exitX=0.863;exitY=0.013;exitDx=0;exitDy=0;strokeWidth=5;edgeStyle=orthogonalEdgeStyle;strokeColor=#d79b00;exitPerimeter=0;fillColor=#ffe6cc;" edge="1" parent="1" source="sMGM3d39AcloHa8HKO3q-49" target="sMGM3d39AcloHa8HKO3q-52">
          <mxGeometry width="50" height="50" relative="1" as="geometry">
            <mxPoint x="703" y="98" as="sourcePoint" />
            <mxPoint x="729" y="10" as="targetPoint" />
          </mxGeometry>
        </mxCell>
        <mxCell id="sMGM3d39AcloHa8HKO3q-56" value="" style="endArrow=none;html=1;rounded=0;exitX=0.613;exitY=0.013;exitDx=0;exitDy=0;strokeWidth=5;entryX=0;entryY=0.5;entryDx=0;entryDy=0;edgeStyle=orthogonalEdgeStyle;strokeColor=#d79b00;exitPerimeter=0;fillColor=#ffe6cc;" edge="1" parent="1" source="sMGM3d39AcloHa8HKO3q-49" target="sMGM3d39AcloHa8HKO3q-53">
          <mxGeometry width="50" height="50" relative="1" as="geometry">
            <mxPoint x="670" y="100" as="sourcePoint" />
            <mxPoint x="632" y="20" as="targetPoint" />
          </mxGeometry>
        </mxCell>
        <mxCell id="sMGM3d39AcloHa8HKO3q-57" value="10.1.2.3" style="text;html=1;strokeColor=none;fillColor=none;align=center;verticalAlign=middle;whiteSpace=wrap;rounded=0;fontSize=24;fontStyle=1" vertex="1" parent="1">
          <mxGeometry x="1030" y="-52.5" width="80" height="30" as="geometry" />
        </mxCell>
        <mxCell id="sMGM3d39AcloHa8HKO3q-58" value="10.1.2.4" style="text;html=1;strokeColor=none;fillColor=none;align=center;verticalAlign=middle;whiteSpace=wrap;rounded=0;fontSize=24;fontStyle=1" vertex="1" parent="1">
          <mxGeometry x="1030" y="40" width="80" height="30" as="geometry" />
        </mxCell>
        <mxCell id="sMGM3d39AcloHa8HKO3q-59" value="10.1.2.5" style="text;html=1;strokeColor=none;fillColor=none;align=center;verticalAlign=middle;whiteSpace=wrap;rounded=0;fontSize=24;fontStyle=1" vertex="1" parent="1">
          <mxGeometry x="1030" y="150" width="80" height="30" as="geometry" />
        </mxCell>
        <mxCell id="sMGM3d39AcloHa8HKO3q-60" value="10.1.2.2" style="text;html=1;strokeColor=none;fillColor=none;align=center;verticalAlign=middle;whiteSpace=wrap;rounded=0;fontSize=24;fontStyle=1" vertex="1" parent="1">
          <mxGeometry x="1030" y="295" width="80" height="30" as="geometry" />
        </mxCell>
        <mxCell id="sMGM3d39AcloHa8HKO3q-61" value="" style="image;html=1;image=img/lib/clip_art/computers/Server_Rack_128x128.png" vertex="1" parent="1">
          <mxGeometry x="900" y="260" width="100" height="100" as="geometry" />
        </mxCell>
        <mxCell id="sMGM3d39AcloHa8HKO3q-62" value="Red&lt;br&gt;Fiscal" style="text;html=1;strokeColor=none;fillColor=none;align=center;verticalAlign=middle;whiteSpace=wrap;rounded=0;fontSize=24;" vertex="1" parent="1">
          <mxGeometry x="590" y="60" width="80" height="30" as="geometry" />
        </mxCell>
        <mxCell id="sMGM3d39AcloHa8HKO3q-63" value="" style="image;html=1;image=img/lib/clip_art/networking/Firewall-page1_128x128.png" vertex="1" parent="1">
          <mxGeometry x="215.5" y="90" width="80" height="80" as="geometry" />
        </mxCell>
        <mxCell id="sMGM3d39AcloHa8HKO3q-64" value="em2 - &lt;font color=&quot;#ff0000&quot;&gt;OPT1&lt;/font&gt; - 10.2.0.0/24&lt;br&gt;10.2.0.1" style="text;html=1;strokeColor=none;fillColor=none;align=center;verticalAlign=middle;whiteSpace=wrap;rounded=0;fontSize=24;fontStyle=1" vertex="1" parent="1">
          <mxGeometry x="-260" y="210" width="210" height="30" as="geometry" />
        </mxCell>
        <mxCell id="sMGM3d39AcloHa8HKO3q-65" value="10.1.1.0/24" style="text;html=1;strokeColor=none;fillColor=none;align=center;verticalAlign=middle;whiteSpace=wrap;rounded=0;fontSize=24;fontStyle=1" vertex="1" parent="1">
          <mxGeometry x="410" y="-410" width="80" height="30" as="geometry" />
        </mxCell>
        <mxCell id="sMGM3d39AcloHa8HKO3q-66" value="Firewall Secundario" style="text;html=1;strokeColor=none;fillColor=none;align=center;verticalAlign=middle;whiteSpace=wrap;rounded=0;fontSize=24;" vertex="1" parent="1">
          <mxGeometry x="140" y="60" width="80" height="30" as="geometry" />
        </mxCell>
        <mxCell id="sMGM3d39AcloHa8HKO3q-67" value="em0 - Automática" style="text;html=1;strokeColor=none;fillColor=none;align=center;verticalAlign=middle;whiteSpace=wrap;rounded=0;fontSize=24;fontStyle=1" vertex="1" parent="1">
          <mxGeometry x="-600" y="295" width="220" height="30" as="geometry" />
        </mxCell>
        <mxCell id="sMGM3d39AcloHa8HKO3q-68" value="em0 - WAN - 10.1.0.0/24&lt;br&gt;10.1.0.2" style="text;html=1;strokeColor=none;fillColor=none;align=center;verticalAlign=middle;whiteSpace=wrap;rounded=0;fontSize=24;fontStyle=1" vertex="1" parent="1">
          <mxGeometry x="40" y="150" width="220" height="104" as="geometry" />
        </mxCell>
        <mxCell id="sMGM3d39AcloHa8HKO3q-69" value="em1 - &lt;font color=&quot;#cccc00&quot;&gt;OPT1&lt;/font&gt; - 10.1.1.0/24&lt;br&gt;10.1.1.1" style="text;html=1;strokeColor=none;fillColor=none;align=left;verticalAlign=middle;whiteSpace=wrap;rounded=0;fontSize=24;fontStyle=1" vertex="1" parent="1">
          <mxGeometry x="280" y="-40" width="220" height="30" as="geometry" />
        </mxCell>
        <mxCell id="sMGM3d39AcloHa8HKO3q-70" value="em2 - &lt;font color=&quot;#cc6600&quot;&gt;OPT2&lt;/font&gt; - 10.1.2.0/24&lt;br&gt;10.1.2.1" style="text;html=1;strokeColor=none;fillColor=none;align=left;verticalAlign=middle;whiteSpace=wrap;rounded=0;fontSize=24;fontStyle=1" vertex="1" parent="1">
          <mxGeometry x="280" y="70" width="280" height="30" as="geometry" />
        </mxCell>
        <mxCell id="sMGM3d39AcloHa8HKO3q-71" value="em3 - &lt;font color=&quot;#00cc00&quot;&gt;LAN&lt;/font&gt; - 10.1.3.0/24&lt;br&gt;10.1.3.1" style="text;html=1;strokeColor=none;fillColor=none;align=left;verticalAlign=middle;whiteSpace=wrap;rounded=0;fontSize=24;fontStyle=1" vertex="1" parent="1">
          <mxGeometry x="270" y="200" width="220" height="80" as="geometry" />
        </mxCell>
        <mxCell id="sMGM3d39AcloHa8HKO3q-72" value="DNS- Domain Name Server&lt;br&gt;8.8.8.8&lt;br&gt;8.8.4.4" style="text;html=1;strokeColor=none;fillColor=none;align=left;verticalAlign=middle;whiteSpace=wrap;rounded=0;fontSize=24;fontStyle=1" vertex="1" parent="1">
          <mxGeometry x="-690" y="370" width="320" height="90" as="geometry" />
        </mxCell>
        <mxCell id="sMGM3d39AcloHa8HKO3q-73" value="DNS&lt;br&gt;10.1.0.1" style="text;html=1;strokeColor=none;fillColor=none;align=left;verticalAlign=middle;whiteSpace=wrap;rounded=0;fontSize=24;fontStyle=1" vertex="1" parent="1">
          <mxGeometry x="130" y="-40" width="90" height="90" as="geometry" />
        </mxCell>
        <mxCell id="sMGM3d39AcloHa8HKO3q-74" value="DNS&lt;br&gt;10.1.3.1" style="text;html=1;strokeColor=none;fillColor=none;align=left;verticalAlign=middle;whiteSpace=wrap;rounded=0;fontSize=24;fontStyle=1" vertex="1" parent="1">
          <mxGeometry x="1140" y="430" width="90" height="90" as="geometry" />
        </mxCell>
        <mxCell id="sMGM3d39AcloHa8HKO3q-75" value="DNS&lt;br&gt;10.1.2.1" style="text;html=1;strokeColor=none;fillColor=none;align=left;verticalAlign=middle;whiteSpace=wrap;rounded=0;fontSize=24;fontStyle=1" vertex="1" parent="1">
          <mxGeometry x="1170" y="-95" width="90" height="90" as="geometry" />
        </mxCell>
        <mxCell id="sMGM3d39AcloHa8HKO3q-76" value="DNS&lt;br&gt;10.1.1.1" style="text;html=1;strokeColor=none;fillColor=none;align=left;verticalAlign=middle;whiteSpace=wrap;rounded=0;fontSize=24;fontStyle=1" vertex="1" parent="1">
          <mxGeometry x="1150" y="-580" width="90" height="90" as="geometry" />
        </mxCell>
        <mxCell id="sMGM3d39AcloHa8HKO3q-77" value="&lt;font style=&quot;font-size: 20px;&quot;&gt;&lt;b&gt;Servidor Web Externo&lt;/b&gt;&lt;/font&gt;&lt;div&gt;&lt;font style=&quot;font-size: 20px;&quot;&gt;&lt;br&gt;&lt;/font&gt;&lt;/div&gt;&lt;div&gt;&lt;font style=&quot;font-size: 20px;&quot;&gt;Puerto Abiertos:&amp;nbsp;&lt;/font&gt;&lt;/div&gt;&lt;div&gt;&lt;font style=&quot;font-size: 20px;&quot;&gt;&lt;br&gt;&lt;/font&gt;&lt;/div&gt;&lt;div&gt;&lt;font style=&quot;font-size: 20px;&quot;&gt;80 - Interior/Exterior&lt;/font&gt;&lt;/div&gt;&lt;div&gt;&lt;font style=&quot;font-size: 20px;&quot;&gt;22 - Interior Red LAN&lt;/font&gt;&lt;/div&gt;&lt;div&gt;&lt;font style=&quot;font-size: 20px;&quot;&gt;&lt;br&gt;&lt;/font&gt;&lt;/div&gt;" style="text;html=1;align=left;verticalAlign=top;whiteSpace=wrap;rounded=0;fillColor=#647687;strokeColor=#314354;fontColor=#ffffff;" vertex="1" parent="1">
          <mxGeometry x="-262" y="-727.5" width="230" height="155" as="geometry" />
        </mxCell>
        <mxCell id="sMGM3d39AcloHa8HKO3q-78" value="&lt;font style=&quot;font-size: 20px;&quot;&gt;&lt;b&gt;Servidor SFTP Externo&lt;/b&gt;&lt;/font&gt;&lt;div&gt;&lt;font style=&quot;font-size: 20px;&quot;&gt;&lt;br&gt;&lt;/font&gt;&lt;/div&gt;&lt;div&gt;&lt;font style=&quot;font-size: 20px;&quot;&gt;Puerto Abiertos:&amp;nbsp;&lt;/font&gt;&lt;/div&gt;&lt;div&gt;&lt;font style=&quot;font-size: 20px;&quot;&gt;&lt;br&gt;&lt;/font&gt;&lt;/div&gt;&lt;div&gt;&lt;span style=&quot;font-size: 20px; background-color: initial;&quot;&gt;22 - Interior/Exterior&lt;/span&gt;&lt;br&gt;&lt;/div&gt;&lt;div&gt;&lt;font style=&quot;font-size: 20px;&quot;&gt;&lt;br&gt;&lt;/font&gt;&lt;/div&gt;" style="text;html=1;align=left;verticalAlign=top;whiteSpace=wrap;rounded=0;fillColor=#647687;strokeColor=#314354;fontColor=#ffffff;" vertex="1" parent="1">
          <mxGeometry x="35" y="-727.5" width="230" height="140" as="geometry" />
        </mxCell>
        <mxCell id="sMGM3d39AcloHa8HKO3q-79" value="&lt;span style=&quot;font-size: 20px;&quot;&gt;&lt;b&gt;Red Contabilidad&lt;/b&gt;&lt;/span&gt;&lt;br&gt;&lt;div&gt;&lt;font style=&quot;font-size: 20px;&quot;&gt;&lt;br&gt;&lt;/font&gt;&lt;/div&gt;&lt;div&gt;&lt;span style=&quot;font-size: 20px;&quot;&gt;Acceso nulo desde el Exterior.&lt;/span&gt;&lt;/div&gt;&lt;div&gt;&lt;span style=&quot;font-size: 20px;&quot;&gt;&lt;br&gt;&lt;/span&gt;&lt;/div&gt;&lt;div&gt;&lt;span style=&quot;font-size: 20px;&quot;&gt;Acceso al Servidor del Dpto.&lt;/span&gt;&lt;/div&gt;&lt;div&gt;&lt;span style=&quot;font-size: 20px;&quot;&gt;&lt;br&gt;&lt;/span&gt;&lt;/div&gt;&lt;div&gt;&lt;span style=&quot;font-size: 20px;&quot;&gt;Sin Acceso al Servidor de Fiscal.&lt;/span&gt;&lt;/div&gt;&lt;div&gt;&lt;span style=&quot;font-size: 20px;&quot;&gt;&lt;br&gt;&lt;/span&gt;&lt;/div&gt;&lt;div&gt;&lt;span style=&quot;font-size: 20px;&quot;&gt;Acceso a los Servidores Internos.&lt;/span&gt;&lt;/div&gt;&lt;div&gt;&lt;span style=&quot;font-size: 20px;&quot;&gt;&lt;br&gt;&lt;/span&gt;&lt;/div&gt;&lt;div&gt;&lt;span style=&quot;font-size: 20px;&quot;&gt;Con Acceso a los Servidores Externos&lt;/span&gt;&lt;/div&gt;&lt;div&gt;&lt;br&gt;&lt;/div&gt;&lt;div&gt;&lt;span style=&quot;font-size: 20px;&quot;&gt;Conexión a Internet&lt;/span&gt;&lt;br&gt;&lt;/div&gt;" style="text;html=1;align=left;verticalAlign=top;whiteSpace=wrap;rounded=0;fillColor=#647687;strokeColor=#314354;fontColor=#ffffff;" vertex="1" parent="1">
          <mxGeometry x="1280" y="-640" width="490" height="330" as="geometry" />
        </mxCell>
        <mxCell id="sMGM3d39AcloHa8HKO3q-80" value="&lt;span style=&quot;font-size: 20px;&quot;&gt;&lt;b&gt;Red Fiscal&lt;/b&gt;&lt;/span&gt;&lt;br&gt;&lt;div&gt;&lt;font style=&quot;font-size: 20px;&quot;&gt;&lt;br&gt;&lt;/font&gt;&lt;/div&gt;&lt;div&gt;&lt;span style=&quot;font-size: 20px;&quot;&gt;Acceso nulo desde el Exterior.&lt;/span&gt;&lt;/div&gt;&lt;div&gt;&lt;span style=&quot;font-size: 20px;&quot;&gt;&lt;br&gt;&lt;/span&gt;&lt;/div&gt;&lt;div&gt;&lt;span style=&quot;font-size: 20px;&quot;&gt;Acceso al Servidor del Dpto.&lt;/span&gt;&lt;/div&gt;&lt;div&gt;&lt;span style=&quot;font-size: 20px;&quot;&gt;&lt;br&gt;&lt;/span&gt;&lt;/div&gt;&lt;div&gt;&lt;span style=&quot;font-size: 20px;&quot;&gt;Sin Acceso al Servidor de Contabilidad.&lt;/span&gt;&lt;/div&gt;&lt;div&gt;&lt;span style=&quot;font-size: 20px;&quot;&gt;&lt;br&gt;&lt;/span&gt;&lt;/div&gt;&lt;div&gt;&lt;span style=&quot;font-size: 20px;&quot;&gt;Acceso a los Servidores Internos.&lt;/span&gt;&lt;/div&gt;&lt;div&gt;&lt;br&gt;&lt;/div&gt;&lt;div&gt;&lt;span style=&quot;font-size: 20px;&quot;&gt;Con Acceso a los Servidores Externos&lt;/span&gt;&lt;br&gt;&lt;/div&gt;&lt;div&gt;&lt;span style=&quot;font-size: 20px;&quot;&gt;&lt;br&gt;&lt;/span&gt;&lt;/div&gt;&lt;div&gt;&lt;span style=&quot;font-size: 20px;&quot;&gt;Conexión a Internet&lt;/span&gt;&lt;/div&gt;" style="text;html=1;align=left;verticalAlign=top;whiteSpace=wrap;rounded=0;fillColor=#647687;strokeColor=#314354;fontColor=#ffffff;" vertex="1" parent="1">
          <mxGeometry x="1280" y="-70" width="490" height="320" as="geometry" />
        </mxCell>
        <mxCell id="sMGM3d39AcloHa8HKO3q-81" value="&lt;span style=&quot;font-size: 20px;&quot;&gt;&lt;b&gt;Red LAN&lt;/b&gt;&lt;/span&gt;&lt;br&gt;&lt;div&gt;&lt;font style=&quot;font-size: 20px;&quot;&gt;&lt;br&gt;&lt;/font&gt;&lt;/div&gt;&lt;div&gt;&lt;span style=&quot;font-size: 20px;&quot;&gt;Acceso nulo menos el acceso permitido a las Redes de Contabilidad y Fiscal&lt;/span&gt;&lt;/div&gt;&lt;div&gt;&lt;span style=&quot;font-size: 20px;&quot;&gt;&lt;br&gt;&lt;/span&gt;&lt;/div&gt;&lt;div&gt;&lt;span style=&quot;font-size: 20px;&quot;&gt;Conexión a Internet&lt;/span&gt;&lt;/div&gt;&lt;div&gt;&lt;span style=&quot;font-size: 20px;&quot;&gt;&lt;br&gt;&lt;/span&gt;&lt;/div&gt;&lt;div&gt;&lt;span style=&quot;font-size: 20px;&quot;&gt;Acceso a los Servidores Internos.&lt;/span&gt;&lt;/div&gt;&lt;div&gt;&lt;br&gt;&lt;/div&gt;" style="text;html=1;align=left;verticalAlign=top;whiteSpace=wrap;rounded=0;fillColor=#647687;strokeColor=#314354;fontColor=#ffffff;" vertex="1" parent="1">
          <mxGeometry x="1310" y="1010" width="460" height="250" as="geometry" />
        </mxCell>
        <mxCell id="sMGM3d39AcloHa8HKO3q-82" value="em3 - &lt;font color=&quot;#0000cc&quot;&gt;OPT2&lt;/font&gt; - 10.3.0.0/24 10.3.0.1" style="text;html=1;strokeColor=none;fillColor=none;align=center;verticalAlign=middle;whiteSpace=wrap;rounded=0;fontSize=24;fontStyle=1" vertex="1" parent="1">
          <mxGeometry x="-262" y="410" width="248" height="30" as="geometry" />
        </mxCell>
        <mxCell id="sMGM3d39AcloHa8HKO3q-83" value="&lt;span style=&quot;font-size: 20px;&quot;&gt;&lt;b&gt;Servidor Interno 1&lt;/b&gt;&lt;/span&gt;&lt;br&gt;&lt;div&gt;&lt;font style=&quot;font-size: 20px;&quot;&gt;&lt;br&gt;&lt;/font&gt;&lt;/div&gt;&lt;div&gt;&lt;span style=&quot;font-size: 20px; background-color: initial;&quot;&gt;Puerto 80 (HTTP) para los DPTOs&lt;/span&gt;&lt;br&gt;&lt;/div&gt;&lt;div&gt;&lt;span style=&quot;font-size: 20px; background-color: initial;&quot;&gt;&lt;br&gt;&lt;/span&gt;&lt;/div&gt;&lt;div&gt;&lt;span style=&quot;font-size: 20px; background-color: initial;&quot;&gt;Puerto 22 (SSH) al 10.1.3.253, 10.1.2.2, 10.1.1.2&lt;/span&gt;&lt;/div&gt;&lt;div&gt;&lt;br&gt;&lt;/div&gt;" style="text;html=1;align=left;verticalAlign=top;whiteSpace=wrap;rounded=0;fillColor=#647687;strokeColor=#314354;fontColor=#ffffff;" vertex="1" parent="1">
          <mxGeometry x="1310" y="500" width="460" height="140" as="geometry" />
        </mxCell>
        <mxCell id="sMGM3d39AcloHa8HKO3q-84" value="&lt;span style=&quot;font-size: 20px;&quot;&gt;&lt;b&gt;Servidor Interno 2&lt;/b&gt;&lt;/span&gt;&lt;br&gt;&lt;div&gt;&lt;font style=&quot;font-size: 20px;&quot;&gt;&lt;br&gt;&lt;/font&gt;&lt;/div&gt;&lt;div&gt;&lt;span style=&quot;font-size: 20px; background-color: initial;&quot;&gt;Puerto 3306 (MySQL) para los DPTOs&lt;/span&gt;&lt;br&gt;&lt;/div&gt;&lt;div&gt;&lt;span style=&quot;font-size: 20px; background-color: initial;&quot;&gt;&lt;br&gt;&lt;/span&gt;&lt;/div&gt;&lt;div&gt;&lt;span style=&quot;font-size: 20px; background-color: initial;&quot;&gt;Puerto 22 (SSH) sólo para 10.1.3.253&lt;/span&gt;&lt;/div&gt;&lt;div&gt;&lt;br&gt;&lt;/div&gt;" style="text;html=1;align=left;verticalAlign=top;whiteSpace=wrap;rounded=0;fillColor=#647687;strokeColor=#314354;fontColor=#ffffff;" vertex="1" parent="1">
          <mxGeometry x="1310" y="655" width="460" height="140" as="geometry" />
        </mxCell>
        <mxCell id="sMGM3d39AcloHa8HKO3q-85" value="&lt;span style=&quot;font-size: 20px;&quot;&gt;&lt;b&gt;Servidor Interno 3&lt;/b&gt;&lt;/span&gt;&lt;br&gt;&lt;div&gt;&lt;font style=&quot;font-size: 20px;&quot;&gt;&lt;br&gt;&lt;/font&gt;&lt;/div&gt;&lt;div&gt;&lt;span style=&quot;font-size: 20px; background-color: initial;&quot;&gt;Puerto 8096 (HTTP Jellyfin) para los DPTOs&lt;/span&gt;&lt;br&gt;&lt;/div&gt;&lt;div&gt;&lt;span style=&quot;font-size: 20px; background-color: initial;&quot;&gt;&lt;br&gt;&lt;/span&gt;&lt;/div&gt;&lt;div&gt;&lt;span style=&quot;font-size: 20px; background-color: initial;&quot;&gt;Puerto 22 (SSH) para los DPTOs&lt;/span&gt;&lt;/div&gt;&lt;div&gt;&lt;br&gt;&lt;/div&gt;&lt;div&gt;&lt;span style=&quot;font-size: 20px;&quot;&gt;Puerto 22 (SSH) sólo para 10.1.3.253&lt;/span&gt;&lt;br&gt;&lt;/div&gt;" style="text;html=1;align=left;verticalAlign=top;whiteSpace=wrap;rounded=0;fillColor=#647687;strokeColor=#314354;fontColor=#ffffff;" vertex="1" parent="1">
          <mxGeometry x="1310" y="810" width="460" height="180" as="geometry" />
        </mxCell>
        <mxCell id="sMGM3d39AcloHa8HKO3q-86" value="&lt;span style=&quot;font-size: 20px;&quot;&gt;&lt;b&gt;Servidor Interno Fiscal&lt;/b&gt;&lt;/span&gt;&lt;br&gt;&lt;div&gt;&lt;font style=&quot;font-size: 20px;&quot;&gt;&lt;br&gt;&lt;/font&gt;&lt;/div&gt;&lt;div&gt;&lt;span style=&quot;font-size: 20px; background-color: initial;&quot;&gt;Puerto 80 (HTTP) para el DPTO&lt;/span&gt;&lt;br&gt;&lt;/div&gt;&lt;div&gt;&lt;span style=&quot;font-size: 20px; background-color: initial;&quot;&gt;&lt;br&gt;&lt;/span&gt;&lt;/div&gt;&lt;div&gt;&lt;span style=&quot;font-size: 20px; background-color: initial;&quot;&gt;Puerto 22 (SSH) sólo el DPTO&lt;/span&gt;&lt;/div&gt;&lt;div&gt;&lt;span style=&quot;font-size: 20px; background-color: initial;&quot;&gt;&lt;br&gt;&lt;/span&gt;&lt;/div&gt;&lt;div&gt;&lt;span style=&quot;font-size: 20px;&quot;&gt;Puerto 22 (SSH) sólo para 10.1.2.253&lt;/span&gt;&lt;span style=&quot;font-size: 20px; background-color: initial;&quot;&gt;&lt;br&gt;&lt;/span&gt;&lt;/div&gt;&lt;div&gt;&lt;br&gt;&lt;/div&gt;" style="text;html=1;align=left;verticalAlign=top;whiteSpace=wrap;rounded=0;fillColor=#647687;strokeColor=#314354;fontColor=#ffffff;" vertex="1" parent="1">
          <mxGeometry x="1280" y="255" width="490" height="185" as="geometry" />
        </mxCell>
        <mxCell id="sMGM3d39AcloHa8HKO3q-87" value="&lt;span style=&quot;font-size: 20px;&quot;&gt;&lt;b&gt;Servidor Interno Contabilidad&lt;/b&gt;&lt;/span&gt;&lt;br&gt;&lt;div&gt;&lt;font style=&quot;font-size: 20px;&quot;&gt;&lt;br&gt;&lt;/font&gt;&lt;/div&gt;&lt;div&gt;&lt;span style=&quot;font-size: 20px; background-color: initial;&quot;&gt;Puerto 80 (HTTP) para el DPTO&lt;/span&gt;&lt;br&gt;&lt;/div&gt;&lt;div&gt;&lt;span style=&quot;font-size: 20px; background-color: initial;&quot;&gt;&lt;br&gt;&lt;/span&gt;&lt;/div&gt;&lt;div&gt;&lt;span style=&quot;font-size: 20px; background-color: initial;&quot;&gt;Puerto 22 (SSH) sólo el DPTO&lt;/span&gt;&lt;/div&gt;&lt;div&gt;&lt;span style=&quot;font-size: 20px; background-color: initial;&quot;&gt;&lt;br&gt;&lt;/span&gt;&lt;/div&gt;&lt;div&gt;&lt;span style=&quot;font-size: 20px;&quot;&gt;Puerto 22 (SSH) sólo para 10.1.1.253&lt;/span&gt;&lt;span style=&quot;font-size: 20px; background-color: initial;&quot;&gt;&lt;br&gt;&lt;/span&gt;&lt;/div&gt;&lt;div&gt;&lt;br&gt;&lt;/div&gt;" style="text;html=1;align=left;verticalAlign=top;whiteSpace=wrap;rounded=0;fillColor=#647687;strokeColor=#314354;fontColor=#ffffff;" vertex="1" parent="1">
          <mxGeometry x="1280" y="-305" width="490" height="185" as="geometry" />
        </mxCell>
        <mxCell id="sMGM3d39AcloHa8HKO3q-88" value="&lt;font style=&quot;font-size: 24px;&quot;&gt;&lt;b&gt;Terminal 3 Adm&lt;/b&gt;&lt;/font&gt;&lt;div&gt;&lt;font style=&quot;font-size: 24px;&quot;&gt;&lt;b&gt;10.2.0.253&lt;/b&gt;&lt;/font&gt;&lt;/div&gt;" style="image;html=1;image=img/lib/clip_art/computers/Netbook_128x128.png;labelBackgroundColor=#FF8000;" vertex="1" parent="1">
          <mxGeometry x="70" y="-195" width="80" height="70" as="geometry" />
        </mxCell>
        <mxCell id="sMGM3d39AcloHa8HKO3q-89" value="&lt;font style=&quot;font-size: 24px;&quot;&gt;&lt;b&gt;Terminal 4 Adm&lt;/b&gt;&lt;/font&gt;" style="image;html=1;image=img/lib/clip_art/computers/Netbook_128x128.png;labelBackgroundColor=#FF8000;" vertex="1" parent="1">
          <mxGeometry x="530" y="410" width="80" height="70" as="geometry" />
        </mxCell>
        <mxCell id="sMGM3d39AcloHa8HKO3q-90" value="" style="rounded=0;whiteSpace=wrap;html=1;fillColor=#647687;strokeColor=#314354;fontColor=#ffffff;" vertex="1" parent="1">
          <mxGeometry x="-340" y="-50" width="25" height="795" as="geometry" />
        </mxCell>
        <mxCell id="sMGM3d39AcloHa8HKO3q-91" value="" style="rounded=0;whiteSpace=wrap;html=1;" vertex="1" parent="1">
          <mxGeometry x="-340" y="20" width="22.5" height="60" as="geometry" />
        </mxCell>
        <mxCell id="sMGM3d39AcloHa8HKO3q-92" value="80" style="text;html=1;strokeColor=none;fillColor=none;align=center;verticalAlign=middle;whiteSpace=wrap;rounded=0;fontSize=24;fontStyle=1" vertex="1" parent="1">
          <mxGeometry x="-440" y="35" width="107.5" height="30" as="geometry" />
        </mxCell>
        <mxCell id="sMGM3d39AcloHa8HKO3q-93" value="10.2.0.2:80" style="text;html=1;strokeColor=none;fillColor=none;align=center;verticalAlign=middle;whiteSpace=wrap;rounded=0;fontSize=24;fontStyle=1" vertex="1" parent="1">
          <mxGeometry x="-285" y="35" width="80" height="30" as="geometry" />
        </mxCell>
        <mxCell id="sMGM3d39AcloHa8HKO3q-94" value="" style="rounded=0;whiteSpace=wrap;html=1;" vertex="1" parent="1">
          <mxGeometry x="-337.5" y="90" width="22.5" height="60" as="geometry" />
        </mxCell>
        <mxCell id="sMGM3d39AcloHa8HKO3q-95" value="22" style="text;html=1;strokeColor=none;fillColor=none;align=center;verticalAlign=middle;whiteSpace=wrap;rounded=0;fontSize=24;fontStyle=1" vertex="1" parent="1">
          <mxGeometry x="-437.5" y="105" width="100" height="30" as="geometry" />
        </mxCell>
        <mxCell id="sMGM3d39AcloHa8HKO3q-96" value="10.2.0.3:22" style="text;html=1;strokeColor=none;fillColor=none;align=center;verticalAlign=middle;whiteSpace=wrap;rounded=0;fontSize=24;fontStyle=1" vertex="1" parent="1">
          <mxGeometry x="-282.5" y="105" width="82.5" height="30" as="geometry" />
        </mxCell>
        <mxCell id="sMGM3d39AcloHa8HKO3q-97" value="" style="rounded=0;whiteSpace=wrap;html=1;fillColor=#647687;strokeColor=#314354;fontColor=#ffffff;" vertex="1" parent="1">
          <mxGeometry x="220" y="-275" width="25" height="795" as="geometry" />
        </mxCell>
        <mxCell id="sMGM3d39AcloHa8HKO3q-98" value="" style="rounded=0;whiteSpace=wrap;html=1;" vertex="1" parent="1">
          <mxGeometry x="223.75" y="295" width="22.5" height="60" as="geometry" />
        </mxCell>
        <mxCell id="sMGM3d39AcloHa8HKO3q-99" value="22 - ssh" style="text;html=1;strokeColor=none;fillColor=none;align=center;verticalAlign=middle;whiteSpace=wrap;rounded=0;fontSize=24;fontStyle=1" vertex="1" parent="1">
          <mxGeometry x="248.75" y="310" width="201.25" height="30" as="geometry" />
        </mxCell>
        <mxCell id="sMGM3d39AcloHa8HKO3q-100" value="22 - ssh" style="text;html=1;strokeColor=none;fillColor=none;align=center;verticalAlign=middle;whiteSpace=wrap;rounded=0;fontSize=24;fontStyle=1" vertex="1" parent="1">
          <mxGeometry x="890" y="480" width="201.25" height="30" as="geometry" />
        </mxCell>
        <mxCell id="sMGM3d39AcloHa8HKO3q-101" value="" style="image;html=1;image=img/lib/clip_art/networking/Firewall-page1_128x128.png" vertex="1" parent="1">
          <mxGeometry x="-1402" y="-200" width="80" height="80" as="geometry" />
        </mxCell>
        <mxCell id="sMGM3d39AcloHa8HKO3q-102" value="" style="image;html=1;image=img/lib/clip_art/networking/Switch_128x128.png" vertex="1" parent="1">
          <mxGeometry x="-1742" y="-200" width="80" height="80" as="geometry" />
        </mxCell>
        <mxCell id="sMGM3d39AcloHa8HKO3q-103" value="" style="endArrow=none;html=1;rounded=0;exitX=1;exitY=0.5;exitDx=0;exitDy=0;strokeWidth=5;fillColor=#f8cecc;strokeColor=#FF0000;entryX=0;entryY=0.5;entryDx=0;entryDy=0;edgeStyle=orthogonalEdgeStyle;" edge="1" parent="1" source="sMGM3d39AcloHa8HKO3q-101">
          <mxGeometry width="50" height="50" relative="1" as="geometry">
            <mxPoint x="-1252" y="-161.11" as="sourcePoint" />
            <mxPoint x="-922" y="250" as="targetPoint" />
          </mxGeometry>
        </mxCell>
        <mxCell id="sMGM3d39AcloHa8HKO3q-104" value="" style="endArrow=none;html=1;rounded=0;strokeWidth=5;strokeColor=#d79b00;edgeStyle=orthogonalEdgeStyle;entryX=0;entryY=0.25;entryDx=0;entryDy=0;exitX=0.5;exitY=1;exitDx=0;exitDy=0;fillColor=#ffe6cc;" edge="1" parent="1" source="sMGM3d39AcloHa8HKO3q-106" target="sMGM3d39AcloHa8HKO3q-101">
          <mxGeometry width="50" height="50" relative="1" as="geometry">
            <mxPoint x="-1532" y="-590" as="sourcePoint" />
            <mxPoint x="-1358" y="-344.88999999999993" as="targetPoint" />
            <Array as="points">
              <mxPoint x="-1602" y="-180" />
            </Array>
          </mxGeometry>
        </mxCell>
        <mxCell id="sMGM3d39AcloHa8HKO3q-105" value="" style="endArrow=none;html=1;rounded=0;strokeWidth=5;entryX=0;entryY=0.5;entryDx=0;entryDy=0;edgeStyle=orthogonalEdgeStyle;strokeColor=#82b366;exitX=1;exitY=0.5;exitDx=0;exitDy=0;fillColor=#d5e8d4;" edge="1" parent="1" source="sMGM3d39AcloHa8HKO3q-102" target="sMGM3d39AcloHa8HKO3q-101">
          <mxGeometry width="50" height="50" relative="1" as="geometry">
            <mxPoint x="-1827.1100000000001" y="524.94" as="sourcePoint" />
            <mxPoint x="-1441.1100000000001" y="82.94000000000005" as="targetPoint" />
            <Array as="points">
              <mxPoint x="-1592" y="-160" />
              <mxPoint x="-1592" y="-160" />
            </Array>
          </mxGeometry>
        </mxCell>
        <mxCell id="sMGM3d39AcloHa8HKO3q-106" value="" style="image;html=1;image=img/lib/clip_art/computers/Server_Rack_128x128.png" vertex="1" parent="1">
          <mxGeometry x="-1652" y="-470" width="100" height="100" as="geometry" />
        </mxCell>
        <mxCell id="sMGM3d39AcloHa8HKO3q-107" value="" style="image;html=1;image=img/lib/clip_art/computers/Netbook_128x128.png" vertex="1" parent="1">
          <mxGeometry x="-1912" y="-95" width="80" height="70" as="geometry" />
        </mxCell>
        <mxCell id="sMGM3d39AcloHa8HKO3q-108" value="" style="image;html=1;image=img/lib/clip_art/computers/Netbook_128x128.png" vertex="1" parent="1">
          <mxGeometry x="-1922" y="-205" width="80" height="90" as="geometry" />
        </mxCell>
        <mxCell id="sMGM3d39AcloHa8HKO3q-109" value="" style="image;html=1;image=img/lib/clip_art/computers/Netbook_128x128.png" vertex="1" parent="1">
          <mxGeometry x="-1922" y="-295" width="80" height="65" as="geometry" />
        </mxCell>
        <mxCell id="sMGM3d39AcloHa8HKO3q-110" value="" style="endArrow=none;html=1;rounded=0;strokeWidth=5;entryX=0.5;entryY=0;entryDx=0;entryDy=0;edgeStyle=orthogonalEdgeStyle;strokeColor=#82b366;exitX=1;exitY=0.5;exitDx=0;exitDy=0;fillColor=#d5e8d4;" edge="1" parent="1" source="sMGM3d39AcloHa8HKO3q-109" target="sMGM3d39AcloHa8HKO3q-102">
          <mxGeometry width="50" height="50" relative="1" as="geometry">
            <mxPoint x="-1652" y="-150" as="sourcePoint" />
            <mxPoint x="-1392" y="-150" as="targetPoint" />
            <Array as="points">
              <mxPoint x="-1702" y="-262" />
            </Array>
          </mxGeometry>
        </mxCell>
        <mxCell id="sMGM3d39AcloHa8HKO3q-111" value="" style="endArrow=none;html=1;rounded=0;strokeWidth=5;entryX=0;entryY=0.5;entryDx=0;entryDy=0;edgeStyle=orthogonalEdgeStyle;strokeColor=#82b366;exitX=1;exitY=0.5;exitDx=0;exitDy=0;fillColor=#d5e8d4;" edge="1" parent="1" source="sMGM3d39AcloHa8HKO3q-108" target="sMGM3d39AcloHa8HKO3q-102">
          <mxGeometry width="50" height="50" relative="1" as="geometry">
            <mxPoint x="-1892" y="-252" as="sourcePoint" />
            <mxPoint x="-1692" y="-190" as="targetPoint" />
            <Array as="points">
              <mxPoint x="-1812" y="-160" />
              <mxPoint x="-1812" y="-160" />
            </Array>
          </mxGeometry>
        </mxCell>
        <mxCell id="sMGM3d39AcloHa8HKO3q-112" value="" style="endArrow=none;html=1;rounded=0;strokeWidth=5;edgeStyle=orthogonalEdgeStyle;strokeColor=#82b366;exitX=1;exitY=0.5;exitDx=0;exitDy=0;fillColor=#d5e8d4;" edge="1" parent="1" source="sMGM3d39AcloHa8HKO3q-107" target="sMGM3d39AcloHa8HKO3q-102">
          <mxGeometry width="50" height="50" relative="1" as="geometry">
            <mxPoint x="-1852" y="-40" as="sourcePoint" />
            <mxPoint x="-1692" y="-40" as="targetPoint" />
            <Array as="points">
              <mxPoint x="-1702" y="-60" />
            </Array>
          </mxGeometry>
        </mxCell>
        <mxCell id="sMGM3d39AcloHa8HKO3q-113" value="em1 - &lt;font color=&quot;#009900&quot;&gt;LAN&lt;/font&gt; -&amp;nbsp;" style="text;html=1;strokeColor=none;fillColor=none;align=center;verticalAlign=middle;whiteSpace=wrap;rounded=0;fontSize=24;fontStyle=1" vertex="1" parent="1">
          <mxGeometry x="-1612" y="-120" width="248" height="30" as="geometry" />
        </mxCell>
        <mxCell id="sMGM3d39AcloHa8HKO3q-114" value="em2 - &lt;font color=&quot;#ff8000&quot;&gt;OPT1&lt;/font&gt; -&amp;nbsp;" style="text;html=1;strokeColor=none;fillColor=none;align=center;verticalAlign=middle;whiteSpace=wrap;rounded=0;fontSize=24;fontStyle=1" vertex="1" parent="1">
          <mxGeometry x="-1593" y="-300" width="210" height="30" as="geometry" />
        </mxCell>
        <mxCell id="sMGM3d39AcloHa8HKO3q-115" value="em0 - &lt;font color=&quot;#ff0000&quot;&gt;WAN&lt;/font&gt;" style="text;html=1;strokeColor=none;fillColor=none;align=center;verticalAlign=middle;whiteSpace=wrap;rounded=0;fontSize=24;fontStyle=1" vertex="1" parent="1">
          <mxGeometry x="-1322" y="-240" width="220" height="30" as="geometry" />
        </mxCell>
        <mxCell id="sMGM3d39AcloHa8HKO3q-116" value="Sucursal 1" style="text;html=1;strokeColor=none;fillColor=none;align=center;verticalAlign=middle;whiteSpace=wrap;rounded=0;fontSize=32;fontStyle=1" vertex="1" parent="1">
          <mxGeometry x="-2102" y="-510" width="180" height="30" as="geometry" />
        </mxCell>
        <mxCell id="sMGM3d39AcloHa8HKO3q-117" value="10.10.0.3" style="text;html=1;strokeColor=none;fillColor=none;align=center;verticalAlign=middle;whiteSpace=wrap;rounded=0;fontSize=24;fontStyle=1" vertex="1" parent="1">
          <mxGeometry x="-2049" y="-284" width="80" height="30" as="geometry" />
        </mxCell>
        <mxCell id="sMGM3d39AcloHa8HKO3q-118" value="10.10.0.4" style="text;html=1;strokeColor=none;fillColor=none;align=center;verticalAlign=middle;whiteSpace=wrap;rounded=0;fontSize=24;fontStyle=1" vertex="1" parent="1">
          <mxGeometry x="-2049" y="-184" width="80" height="30" as="geometry" />
        </mxCell>
        <mxCell id="sMGM3d39AcloHa8HKO3q-119" value="10.10.0.5" style="text;html=1;strokeColor=none;fillColor=none;align=center;verticalAlign=middle;whiteSpace=wrap;rounded=0;fontSize=24;fontStyle=1" vertex="1" parent="1">
          <mxGeometry x="-2052" y="-82.5" width="80" height="30" as="geometry" />
        </mxCell>
        <mxCell id="sMGM3d39AcloHa8HKO3q-120" value="10.10.1.0/24" style="text;html=1;strokeColor=none;fillColor=none;align=center;verticalAlign=middle;whiteSpace=wrap;rounded=0;fontSize=24;fontStyle=1" vertex="1" parent="1">
          <mxGeometry x="-1532" y="-267" width="80" height="30" as="geometry" />
        </mxCell>
        <mxCell id="sMGM3d39AcloHa8HKO3q-121" value="10.10.0.0/24" style="text;html=1;strokeColor=none;fillColor=none;align=center;verticalAlign=middle;whiteSpace=wrap;rounded=0;fontSize=24;fontStyle=1" vertex="1" parent="1">
          <mxGeometry x="-1574" y="-88" width="164" height="28" as="geometry" />
        </mxCell>
        <mxCell id="sMGM3d39AcloHa8HKO3q-122" value="10.0.2.15" style="text;html=1;strokeColor=none;fillColor=none;align=center;verticalAlign=middle;whiteSpace=wrap;rounded=0;fontSize=24;fontStyle=1" vertex="1" parent="1">
          <mxGeometry x="-1255" y="-210" width="80" height="30" as="geometry" />
        </mxCell>
        <mxCell id="sMGM3d39AcloHa8HKO3q-123" value="10.10.1.2" style="text;html=1;strokeColor=none;fillColor=none;align=center;verticalAlign=middle;whiteSpace=wrap;rounded=0;fontSize=24;fontStyle=1" vertex="1" parent="1">
          <mxGeometry x="-1754" y="-435" width="80" height="30" as="geometry" />
        </mxCell>
        <mxCell id="sMGM3d39AcloHa8HKO3q-124" value="10.10.1.1" style="text;html=1;strokeColor=none;fillColor=none;align=center;verticalAlign=middle;whiteSpace=wrap;rounded=0;fontSize=24;fontStyle=1" vertex="1" parent="1">
          <mxGeometry x="-1532" y="-240" width="80" height="30" as="geometry" />
        </mxCell>
        <mxCell id="sMGM3d39AcloHa8HKO3q-125" value="10.10.0.1" style="text;html=1;strokeColor=none;fillColor=none;align=center;verticalAlign=middle;whiteSpace=wrap;rounded=0;fontSize=24;fontStyle=1" vertex="1" parent="1">
          <mxGeometry x="-1577" y="-64" width="164" height="28" as="geometry" />
        </mxCell>
        <mxCell id="sMGM3d39AcloHa8HKO3q-126" value="&lt;font style=&quot;font-size: 20px;&quot;&gt;&lt;b&gt;Servidor Web Externo&lt;/b&gt;&lt;/font&gt;&lt;div&gt;&lt;font style=&quot;font-size: 20px;&quot;&gt;&lt;br&gt;&lt;/font&gt;&lt;/div&gt;&lt;div&gt;&lt;font style=&quot;font-size: 20px;&quot;&gt;Puerto Abiertos:&amp;nbsp;&lt;/font&gt;&lt;/div&gt;&lt;div&gt;&lt;font style=&quot;font-size: 20px;&quot;&gt;&lt;br&gt;&lt;/font&gt;&lt;/div&gt;&lt;div&gt;&lt;font style=&quot;font-size: 20px;&quot;&gt;80 - Interior/Exterior&lt;/font&gt;&lt;/div&gt;&lt;div&gt;&lt;font style=&quot;font-size: 20px;&quot;&gt;22 - Interior Red LAN&lt;/font&gt;&lt;/div&gt;&lt;div&gt;&lt;font style=&quot;font-size: 20px;&quot;&gt;&lt;br&gt;&lt;/font&gt;&lt;/div&gt;" style="text;html=1;align=left;verticalAlign=top;whiteSpace=wrap;rounded=0;fillColor=#647687;strokeColor=#314354;fontColor=#ffffff;" vertex="1" parent="1">
          <mxGeometry x="-1610" y="-677" width="230" height="155" as="geometry" />
        </mxCell>
      </root>
    </mxGraphModel>
  </diagram>
</mxfile>
